<svg width="220" height="58" viewBox="0 0 220 58" fill="none" xmlns="http://www.w3.org/2000/svg">
<path d="M67.4722 28.9003H75.8168V28.0719C72.9073 27.9102 72.8265 27.8496 72.8265 26.2736V20.8587H74.4227C75.736 20.8587 77.0089 20.7576 78.0596 20.495C80.2215 19.9292 82.7269 18.4139 82.7269 14.878C82.7269 12.716 81.7773 11.2411 80.5044 10.4531C79.1507 9.60448 77.3524 9.32161 75.3723 9.32161H67.4722V10.15C69.9574 10.3117 70.018 10.3723 70.018 11.9483V26.2736C70.018 27.8496 69.9574 27.9102 67.4722 28.0719V28.9003ZM72.8265 18.7775V11.3623C72.8265 10.5743 73.1296 10.3117 74.9682 10.3117C77.8777 10.3117 79.6558 11.9887 79.6558 15.0598C79.6558 18.5957 77.3524 19.8686 74.9076 19.8686C73.2508 19.8686 72.8265 19.8282 72.8265 18.7775ZM84.8485 21.9699C84.8485 26.5565 87.071 29.2437 91.6373 29.2437C96.1835 29.2437 98.4262 26.5565 98.4262 21.9699C98.4262 17.3834 96.1835 14.6961 91.6373 14.6961C87.071 14.6961 84.8485 17.3834 84.8485 21.9699ZM87.7782 21.9699C87.7782 18.0704 89.0309 15.6862 91.6373 15.6862C94.2236 15.6862 95.4763 18.0704 95.4763 21.9699C95.4763 25.8695 94.2236 28.2537 91.6373 28.2537C89.0309 28.2537 87.7782 25.8695 87.7782 21.9699ZM101.113 24.1723L101.396 27.89C102.407 28.779 104.124 29.2437 105.801 29.2437C109.175 29.2437 111.095 27.4657 111.095 25.0613C111.095 22.5559 109.559 21.4244 106.65 20.5354C105.498 20.1515 103.619 19.5655 103.619 17.9896C103.619 16.5146 104.75 15.6862 106.165 15.6862C108.185 15.6862 109.135 17.242 109.337 18.9796H110.165V15.666C109.216 14.979 107.781 14.6961 106.508 14.6961C103.457 14.6961 101.356 16.1509 101.356 18.8382C101.356 21.1819 103.275 22.2326 105.639 22.9398C106.912 23.3237 108.69 23.9702 108.69 25.9099C108.69 27.3445 107.559 28.2537 106.064 28.2537C103.76 28.2537 102.487 26.5767 101.922 24.1723H101.113ZM112.994 16.1711H115.015V26.0109C115.015 28.9003 117.176 29.2437 118.167 29.2437C119.601 29.2437 120.955 28.4962 121.783 27.991L121.561 27.4051C120.874 27.688 120.248 27.7688 119.54 27.7688C118.591 27.7688 117.682 27.0818 117.682 24.9401V16.1711H121.339V15.0396H117.682V11.4835H116.853L115.136 15.0396H112.994V16.1711ZM123.258 23.1014L123.541 27.6273C124.774 28.779 127.138 29.3246 129.118 29.3246C134.108 29.3246 136.088 26.4757 136.088 23.5863C136.088 20.2525 133.825 18.6563 130.532 17.444L129.623 17.1005C127.723 16.3934 126.147 15.1811 126.147 13.4838C126.147 11.4229 127.38 9.88735 129.764 9.88735C132.189 9.88735 133.543 11.2815 134.007 14.1304H134.876V10.15C133.926 9.38222 131.987 8.8973 130.067 8.8973C126.612 8.8973 123.561 10.6349 123.561 14.3527C123.561 17.3228 125.945 18.8786 128.916 19.9292L129.421 20.1313C130.673 20.6162 133.361 21.9093 133.361 24.435C133.361 26.8596 131.805 28.3345 129.279 28.3345C126.612 28.3345 124.875 26.2736 124.167 23.1014H123.258ZM138.533 25.2229C138.533 27.3445 139.947 29.2437 142.594 29.2437C144.251 29.2437 145.908 28.1325 146.817 27.5465C147.221 28.5972 147.666 29.2437 148.656 29.2437C149.707 29.2437 150.919 28.9205 151.99 28.3951L151.828 27.7082C151.424 27.789 150.798 27.8496 150.373 27.7486C149.868 27.6273 149.383 27.0818 149.383 25.3038V18.4543C149.383 16.8177 149.02 14.6961 144.756 14.6961C141.564 14.6961 139.038 16.3732 139.038 17.9289C139.038 18.8382 140.089 19.2625 140.614 19.2625C141.22 19.2625 141.382 18.9392 141.523 18.4543C142.15 16.3732 143.302 15.6862 144.433 15.6862C145.544 15.6862 146.837 16.2519 146.837 18.5149V19.707C146.13 20.4344 143.403 21.1415 141.16 21.8487C139.119 22.4751 138.533 23.8894 138.533 25.2229ZM141.382 24.8188C141.382 23.5055 142.008 22.8186 143.584 22.2326C144.716 21.8083 146.231 21.2628 146.837 20.8587V24.8593C146.837 27.1424 145.1 27.7486 143.988 27.7486C142.231 27.7486 141.382 26.4959 141.382 24.8188ZM152.475 28.476L152.697 28.9003H164.719L165.002 24.5764H164.133C163.668 27.2232 162.719 27.9102 159.567 27.9102H155.93C158.779 23.748 161.749 19.5857 164.759 15.4437L164.517 15.0396H153.667V19.2221H154.536C154.899 16.6156 155.505 16.0297 158.556 16.0297H161.385C158.475 20.1919 155.505 24.3137 152.475 28.476ZM164.699 28.9003H170.922V28.0719L169.447 27.9304C168.598 27.8496 168.517 27.5667 168.74 26.7989C169.225 25.1017 169.81 23.3641 170.457 21.3436H176.801L178.701 26.7585C178.984 27.5667 178.842 27.89 177.933 27.9708L176.66 28.0719V28.9003H183.893V28.0719C182.257 27.9304 181.954 27.8496 181.449 26.3746L175.448 9.32161H173.346L170.376 17.7067C169.507 20.1515 168.315 23.5459 167.325 26.1322C166.739 27.6475 166.477 27.991 164.699 28.0719V28.9003ZM170.841 20.2727C171.73 17.444 172.72 14.6759 173.569 12.1907H173.67L176.458 20.2727H170.841ZM184.459 28.9003H192.359V28.0719C189.894 27.9102 189.813 27.8496 189.813 26.2736V11.9483C189.813 10.3723 189.894 10.3117 192.359 10.15V9.32161H184.459V10.15C186.965 10.3117 187.005 10.3723 187.005 11.9483V26.2736C187.005 27.8496 186.965 27.9102 184.459 28.0719V28.9003ZM195.329 27.4657C195.329 28.476 196.037 29.2437 197.107 29.2437C198.219 29.2437 198.865 28.476 198.885 27.4657C198.885 26.415 198.219 25.627 197.107 25.627C196.037 25.627 195.329 26.415 195.329 27.4657ZM203.452 10.3925C203.452 11.4229 204.159 12.1301 205.169 12.1301C206.2 12.1301 206.907 11.4229 206.907 10.3925C206.907 9.38222 206.2 8.67505 205.169 8.67505C204.159 8.67505 203.452 9.38222 203.452 10.3925ZM201.755 28.9003H208.645V28.0719C206.644 27.9304 206.523 27.89 206.523 26.4352V14.878L206.341 14.6961L201.896 15.4033V16.1105L202.967 16.2519C203.694 16.3732 203.876 16.5146 203.876 17.5248V26.4352C203.876 27.89 203.795 27.9304 201.755 28.0719V28.9003ZM209.978 28.9003H217.454V28.0719C214.928 27.9304 214.767 27.89 214.767 26.4352V19.8282C214.767 17.6461 215.716 16.8985 216.383 16.8985C216.828 16.8985 217.312 17.0803 218.121 17.5248C218.323 17.6461 218.545 17.6663 218.686 17.6663C219.373 17.6663 220 16.9591 220 16.0903C220 15.4639 219.596 14.6961 218.505 14.6961C217.474 14.6961 216.625 15.3225 214.767 16.9591L214.423 14.6961L210.119 15.4033V16.1105L211.19 16.2519C211.938 16.3732 212.1 16.5146 212.1 17.5248V26.4352C212.1 27.89 211.958 27.9304 209.978 28.0719V28.9003Z" fill="white"/>
<path d="M0.412585 32.1451C0.412585 25.1855 0.261916 18.217 0.477407 11.267C0.480137 9.67663 0.969733 8.12522 1.88037 6.82135C2.791 5.51749 4.07902 4.5237 5.57123 3.9736C9.06464 2.67189 12.77 1.3991 16.4378 1.21689C24.1339 0.850561 31.8441 0.894714 39.5356 1.34916C42.902 1.54188 46.3008 2.81906 49.4806 4.10762C50.751 4.61846 51.843 5.49206 52.6201 6.61942C53.3973 7.74679 53.8254 9.07804 53.8509 10.4471C54.1762 18.4191 54.3826 26.3955 54.4702 34.3762C54.5052 37.4903 54.0085 40.6071 53.9385 43.7264C53.7843 50.6081 50.5975 54.9924 43.8086 56.1978C39.2909 56.8621 34.7235 57.1288 30.1591 56.9949C24.7876 56.9949 19.4003 56.7794 14.0542 56.2854C11.3302 55.9922 8.66713 55.2841 6.15726 54.1856C4.80964 53.5911 3.65072 52.6387 2.80641 51.4318C1.96211 50.2249 1.46472 48.8096 1.36828 47.3399C0.796264 42.2986 0.444998 37.2319 0 32.1758L0.412585 32.1451ZM4.46049 32.8555L3.74832 32.8783C4.132 37.288 4.47012 41.7021 4.92038 46.1056C5.12711 48.1361 5.90761 50.0799 7.89871 50.8744C9.95326 51.749 12.1253 52.3166 14.345 52.559C19.9154 53.0162 25.5094 53.3184 31.0973 53.3727C35.0137 53.4607 38.9303 53.2051 42.8021 52.6089C47.62 51.7977 49.9125 49.0892 50.1498 44.7251C50.7 34.5716 51.5891 24.4312 50.6597 14.241C50.1735 8.915 48.9077 7.0334 43.7298 5.64585C42.7532 5.35643 41.747 5.17806 40.7304 5.11413C33.395 4.86184 26.049 4.37217 18.7223 4.57102C14.9617 4.67263 11.1889 5.86397 7.50978 6.89587C5.44509 7.47577 4.34836 9.04815 4.4018 11.5272C4.55685 18.6322 4.46049 25.7443 4.46049 32.8555ZM26.0481 41.1589C18.9851 40.9908 13.9684 36.6976 13.2676 30.2215C12.6027 24.08 17.3208 17.7922 23.8853 16.0691C33.0831 13.6541 41.5539 20.0986 40.6393 28.819C39.9061 35.7901 33.3503 41.3333 26.0455 41.1589H26.0481ZM25.4192 37.4641C28.3374 37.59 31.1974 36.6215 33.4388 34.7485C38.3495 30.6174 38.0438 23.903 32.8203 20.4902C29.2858 18.1811 23.1846 19.2043 19.7936 22.6749C17.1088 25.422 16.2258 29.1396 17.6387 32.2765C18.2923 33.8024 19.3756 35.1052 20.7566 36.0263C22.1376 36.9474 23.7567 37.4469 25.4166 37.4641H25.4192ZM43.0264 10.9911C41.8333 10.6459 40.3187 12.2744 40.4028 13.5787C40.4904 14.9339 41.3103 15.9439 42.6313 15.6049C43.601 15.3596 44.3745 14.3364 45.7332 13.2686C44.4972 12.185 43.8638 11.2328 43.0264 10.9911Z" fill="url(#paint0_linear_3602_3667)"/>
<path d="M72.07 47.273L72.408 46.207C72.9367 46.207 73.4957 46.1767 74.085 46.116C74.6743 46.0467 75.2593 45.9297 75.84 45.765C76.4293 45.5917 76.9883 45.3577 77.517 45.063C78.0457 44.7683 78.5093 44.3957 78.908 43.945L79.727 44.426C79.649 44.6253 79.597 44.7857 79.571 44.907C79.545 45.0197 79.532 45.1237 79.532 45.219C79.532 45.349 79.5797 45.4747 79.675 45.596C79.7703 45.7087 79.948 45.804 80.208 45.882C80.4767 45.96 80.8537 45.999 81.339 45.999C81.521 45.999 81.651 46.051 81.729 46.155C81.8157 46.2503 81.859 46.3673 81.859 46.506C81.859 46.6447 81.7983 46.7747 81.677 46.896C81.5557 47.0087 81.3997 47.065 81.209 47.065C80.6543 47.065 80.1647 47.0087 79.74 46.896C79.324 46.7747 79.012 46.5883 78.804 46.337C78.6047 46.077 78.5397 45.7433 78.609 45.336L78.843 45.414C78.4963 45.726 78.0803 45.999 77.595 46.233C77.1183 46.4583 76.5853 46.649 75.996 46.805C75.4153 46.961 74.7913 47.078 74.124 47.156C73.4653 47.234 72.7807 47.273 72.07 47.273ZM72.07 47.273C71.2987 47.273 70.6183 47.221 70.029 47.117C69.4483 47.0217 68.963 46.87 68.573 46.662C68.183 46.454 67.8883 46.1853 67.689 45.856C67.4897 45.518 67.39 45.1107 67.39 44.634C67.39 44.4173 67.4073 44.1963 67.442 43.971C67.4767 43.737 67.52 43.503 67.572 43.269C67.6327 43.035 67.6933 42.8097 67.754 42.593L68.729 42.84C68.6943 42.97 68.6553 43.126 68.612 43.308C68.5687 43.4813 68.5297 43.659 68.495 43.841C68.469 44.023 68.456 44.1877 68.456 44.335C68.456 44.7857 68.5687 45.1497 68.794 45.427C69.028 45.6957 69.431 45.895 70.003 46.025C70.575 46.1463 71.3767 46.207 72.408 46.207L72.668 46.857L72.07 47.273ZM74.254 41.787C74.072 41.787 73.916 41.7263 73.786 41.605C73.6647 41.475 73.604 41.3233 73.604 41.15C73.604 40.9767 73.6647 40.825 73.786 40.695C73.916 40.565 74.072 40.5 74.254 40.5C74.4273 40.5 74.5747 40.565 74.696 40.695C74.826 40.825 74.891 40.9767 74.891 41.15C74.891 41.3233 74.826 41.475 74.696 41.605C74.5747 41.7263 74.4273 41.787 74.254 41.787ZM72.473 41.787C72.291 41.787 72.135 41.7263 72.005 41.605C71.8837 41.475 71.823 41.3233 71.823 41.15C71.823 40.9767 71.8837 40.825 72.005 40.695C72.135 40.565 72.291 40.5 72.473 40.5C72.6463 40.5 72.7937 40.565 72.915 40.695C73.045 40.825 73.11 40.9767 73.11 41.15C73.11 41.3233 73.045 41.475 72.915 41.605C72.7937 41.7263 72.6463 41.787 72.473 41.787ZM81.2061 47.065L81.3361 45.999C81.6134 45.999 81.8387 45.9817 82.0121 45.947C82.1854 45.9037 82.3284 45.804 82.4411 45.648C82.5624 45.4833 82.6751 45.2277 82.7791 44.881C82.8831 44.5343 83.0044 44.049 83.1431 43.425L84.1181 43.698C84.0661 43.9147 84.0054 44.1747 83.9361 44.478C83.8667 44.7813 83.8321 45.0587 83.8321 45.31C83.8321 45.4487 83.8667 45.57 83.9361 45.674C84.0054 45.778 84.1224 45.8603 84.2871 45.921C84.4604 45.973 84.6901 45.999 84.9761 45.999C85.2361 45.999 85.4484 45.9773 85.6131 45.934C85.7777 45.8907 85.9121 45.7867 86.0161 45.622C86.1287 45.4573 86.2284 45.193 86.3151 44.829C86.4017 44.465 86.4927 43.9667 86.5881 43.334L87.5761 43.516C87.5501 43.672 87.5197 43.8627 87.4851 44.088C87.4504 44.3133 87.4157 44.5387 87.3811 44.764C87.3551 44.9807 87.3421 45.1627 87.3421 45.31C87.3421 45.4313 87.3681 45.5483 87.4201 45.661C87.4807 45.765 87.5934 45.8473 87.7581 45.908C87.9314 45.9687 88.1871 45.999 88.5251 45.999C88.9584 45.999 89.2704 45.908 89.4611 45.726C89.6604 45.544 89.7601 45.2667 89.7601 44.894C89.7601 44.6947 89.7557 44.4867 89.7471 44.27C89.7384 44.0447 89.7211 43.7977 89.6951 43.529C89.6777 43.2517 89.6474 42.9353 89.6041 42.58L90.5531 42.515C90.6051 43.217 90.6614 43.7933 90.7221 44.244C90.7914 44.6947 90.8867 45.05 91.0081 45.31C91.1381 45.5613 91.3114 45.739 91.5281 45.843C91.7447 45.947 92.0307 45.999 92.3861 45.999C92.5681 45.999 92.6981 46.051 92.7761 46.155C92.8627 46.2503 92.9061 46.3673 92.9061 46.506C92.9061 46.6447 92.8454 46.7747 92.7241 46.896C92.6027 47.0087 92.4467 47.065 92.2561 47.065C91.9614 47.065 91.6971 47.026 91.4631 46.948C91.2377 46.8613 91.0384 46.7487 90.8651 46.61C90.7004 46.4627 90.5617 46.298 90.4491 46.116C90.3451 45.9253 90.2714 45.726 90.2281 45.518L90.4621 45.596C90.3667 45.986 90.2151 46.2893 90.0071 46.506C89.8077 46.714 89.5694 46.8613 89.2921 46.948C89.0147 47.026 88.7201 47.065 88.4081 47.065C88.0267 47.065 87.7147 47.0173 87.4721 46.922C87.2294 46.8267 87.0387 46.6837 86.9001 46.493C86.7701 46.2937 86.6834 46.0423 86.6401 45.739H87.0821C86.9174 46.1117 86.7441 46.3933 86.5621 46.584C86.3801 46.7747 86.1547 46.9047 85.8861 46.974C85.6174 47.0347 85.2621 47.065 84.8201 47.065C84.6034 47.065 84.3694 47.0303 84.1181 46.961C83.8754 46.8917 83.6631 46.7573 83.4811 46.558C83.2991 46.35 83.1907 46.0423 83.1561 45.635L83.5461 45.557C83.3987 45.999 83.2167 46.3283 83.0001 46.545C82.7921 46.753 82.5407 46.8917 82.2461 46.961C81.9514 47.0303 81.6047 47.065 81.2061 47.065ZM92.251 47.065L92.381 45.999C92.8923 45.999 93.291 45.9817 93.577 45.947C93.863 45.9037 94.0666 45.804 94.188 45.648C94.3093 45.4833 94.37 45.2277 94.37 44.881C94.37 44.6643 94.3353 44.4087 94.266 44.114C94.1966 43.8107 94.1056 43.49 93.993 43.152C93.8803 42.814 93.759 42.4803 93.629 42.151L94.682 41.761C94.7946 42.0383 94.8986 42.3547 94.994 42.71C95.098 43.0653 95.1846 43.4163 95.254 43.763C95.3233 44.1097 95.358 44.413 95.358 44.673C95.358 45.1063 95.2973 45.4747 95.176 45.778C95.0633 46.0813 94.8813 46.3283 94.63 46.519C94.3786 46.7097 94.0536 46.8483 93.655 46.935C93.265 47.0217 92.797 47.065 92.251 47.065ZM93.707 50.965C93.5336 50.965 93.382 50.9 93.252 50.77C93.1306 50.64 93.07 50.4883 93.07 50.315C93.07 50.1417 93.1306 49.99 93.252 49.86C93.382 49.7387 93.5336 49.678 93.707 49.678C93.889 49.678 94.0406 49.7387 94.162 49.86C94.292 49.99 94.357 50.1417 94.357 50.315C94.357 50.4883 94.292 50.64 94.162 50.77C94.0406 50.9 93.889 50.965 93.707 50.965ZM94.591 49.535C94.4176 49.535 94.266 49.47 94.136 49.34C94.0146 49.21 93.954 49.0583 93.954 48.885C93.954 48.7117 94.0146 48.56 94.136 48.43C94.266 48.3087 94.4176 48.248 94.591 48.248C94.773 48.248 94.9246 48.3087 95.046 48.43C95.176 48.56 95.241 48.7117 95.241 48.885C95.241 49.0583 95.176 49.21 95.046 49.34C94.9246 49.47 94.773 49.535 94.591 49.535ZM92.823 49.535C92.6496 49.535 92.498 49.47 92.368 49.34C92.2466 49.21 92.186 49.0583 92.186 48.885C92.186 48.7117 92.2466 48.56 92.368 48.43C92.498 48.3087 92.6496 48.248 92.823 48.248C93.005 48.248 93.1566 48.3087 93.278 48.43C93.408 48.56 93.473 48.7117 93.473 48.885C93.473 49.0583 93.408 49.21 93.278 49.34C93.1566 49.47 93.005 49.535 92.823 49.535ZM104.862 47.273L105.2 46.207C105.729 46.207 106.288 46.1767 106.877 46.116C107.466 46.0467 108.051 45.9297 108.632 45.765C109.221 45.5917 109.78 45.3577 110.309 45.063C110.838 44.7683 111.301 44.3957 111.7 43.945L112.519 44.426C112.441 44.6253 112.389 44.7857 112.363 44.907C112.337 45.0197 112.324 45.1237 112.324 45.219C112.324 45.349 112.372 45.4747 112.467 45.596C112.562 45.7087 112.74 45.804 113 45.882C113.269 45.96 113.646 45.999 114.131 45.999C114.313 45.999 114.443 46.051 114.521 46.155C114.608 46.2503 114.651 46.3673 114.651 46.506C114.651 46.6447 114.59 46.7747 114.469 46.896C114.348 47.0087 114.192 47.065 114.001 47.065C113.446 47.065 112.957 47.0087 112.532 46.896C112.116 46.7747 111.804 46.5883 111.596 46.337C111.397 46.077 111.332 45.7433 111.401 45.336L111.635 45.414C111.288 45.726 110.872 45.999 110.387 46.233C109.91 46.4583 109.377 46.649 108.788 46.805C108.207 46.961 107.583 47.078 106.916 47.156C106.257 47.234 105.573 47.273 104.862 47.273ZM104.862 47.273C104.091 47.273 103.41 47.221 102.821 47.117C102.24 47.0217 101.755 46.87 101.365 46.662C100.975 46.454 100.68 46.1853 100.481 45.856C100.282 45.518 100.182 45.1107 100.182 44.634C100.182 44.4173 100.199 44.1963 100.234 43.971C100.269 43.737 100.312 43.503 100.364 43.269C100.425 43.035 100.485 42.8097 100.546 42.593L101.521 42.84C101.486 42.97 101.447 43.126 101.404 43.308C101.361 43.4813 101.322 43.659 101.287 43.841C101.261 44.023 101.248 44.1877 101.248 44.335C101.248 44.7857 101.361 45.1497 101.586 45.427C101.82 45.6957 102.223 45.895 102.795 46.025C103.367 46.1463 104.169 46.207 105.2 46.207L105.46 46.857L104.862 47.273ZM107.046 41.787C106.864 41.787 106.708 41.7263 106.578 41.605C106.457 41.475 106.396 41.3233 106.396 41.15C106.396 40.9767 106.457 40.825 106.578 40.695C106.708 40.565 106.864 40.5 107.046 40.5C107.219 40.5 107.367 40.565 107.488 40.695C107.618 40.825 107.683 40.9767 107.683 41.15C107.683 41.3233 107.618 41.475 107.488 41.605C107.367 41.7263 107.219 41.787 107.046 41.787ZM105.265 41.787C105.083 41.787 104.927 41.7263 104.797 41.605C104.676 41.475 104.615 41.3233 104.615 41.15C104.615 40.9767 104.676 40.825 104.797 40.695C104.927 40.565 105.083 40.5 105.265 40.5C105.438 40.5 105.586 40.565 105.707 40.695C105.837 40.825 105.902 40.9767 105.902 41.15C105.902 41.3233 105.837 41.475 105.707 41.605C105.586 41.7263 105.438 41.787 105.265 41.787ZM113.998 47.065L114.115 45.999C114.566 45.999 115.008 45.9643 115.441 45.895C115.874 45.8257 116.299 45.726 116.715 45.596C117.131 45.466 117.53 45.31 117.911 45.128C118.301 44.9373 118.669 44.7207 119.016 44.478C118.791 44.2787 118.531 44.1053 118.236 43.958C117.941 43.8107 117.616 43.698 117.261 43.62C116.914 43.5333 116.546 43.49 116.156 43.49C116.017 43.49 115.887 43.4943 115.766 43.503C115.645 43.5117 115.523 43.529 115.402 43.555C115.281 43.5723 115.142 43.5983 114.986 43.633L114.778 42.645C115.012 42.5757 115.246 42.5237 115.48 42.489C115.714 42.4457 115.939 42.424 116.156 42.424C116.607 42.424 117.014 42.4803 117.378 42.593C117.742 42.697 118.071 42.827 118.366 42.983C118.669 43.139 118.951 43.295 119.211 43.451C119.48 43.607 119.74 43.7413 119.991 43.854C120.242 43.958 120.502 44.01 120.771 44.01H121.044L121.135 44.946C120.762 44.946 120.42 44.998 120.108 45.102C119.796 45.206 119.488 45.3403 119.185 45.505C118.89 45.661 118.578 45.83 118.249 46.012C117.92 46.1853 117.556 46.3543 117.157 46.519C116.758 46.675 116.299 46.805 115.779 46.909C115.268 47.013 114.674 47.065 113.998 47.065ZM116.169 41.085C115.987 41.085 115.831 41.0243 115.701 40.903C115.58 40.773 115.519 40.6213 115.519 40.448C115.519 40.2747 115.58 40.123 115.701 39.993C115.831 39.863 115.987 39.798 116.169 39.798C116.342 39.798 116.49 39.863 116.611 39.993C116.741 40.123 116.806 40.2747 116.806 40.448C116.806 40.6213 116.741 40.773 116.611 40.903C116.49 41.0243 116.342 41.085 116.169 41.085ZM125.436 47.065C124.743 47.065 124.21 46.987 123.837 46.831C123.473 46.675 123.222 46.4323 123.083 46.103C122.945 45.7737 122.867 45.349 122.849 44.829L122.589 37.718H123.655L123.915 44.413C123.933 44.8377 123.972 45.167 124.032 45.401C124.102 45.6263 124.249 45.7823 124.474 45.869C124.708 45.9557 125.072 45.999 125.566 45.999C125.748 45.999 125.878 46.051 125.956 46.155C126.043 46.2503 126.086 46.3673 126.086 46.506C126.086 46.6447 126.026 46.7747 125.904 46.896C125.783 47.0087 125.627 47.065 125.436 47.065ZM125.437 47.065L125.567 45.999C125.844 45.999 126.069 45.9817 126.243 45.947C126.416 45.9037 126.559 45.804 126.672 45.648C126.793 45.4833 126.906 45.2277 127.01 44.881C127.114 44.5343 127.235 44.049 127.374 43.425L128.349 43.698C128.314 43.8453 128.275 44.0143 128.232 44.205C128.188 44.387 128.149 44.5777 128.115 44.777C128.08 44.9677 128.063 45.1453 128.063 45.31C128.063 45.5267 128.145 45.6957 128.31 45.817C128.474 45.9383 128.773 45.999 129.207 45.999C129.467 45.999 129.679 45.9773 129.844 45.934C130.008 45.8907 130.143 45.7867 130.247 45.622C130.359 45.4573 130.459 45.193 130.546 44.829C130.632 44.465 130.723 43.9667 130.819 43.334L131.807 43.516C131.781 43.672 131.75 43.8627 131.716 44.088C131.681 44.3133 131.646 44.5387 131.612 44.764C131.586 44.9807 131.573 45.1627 131.573 45.31C131.573 45.4313 131.599 45.5483 131.651 45.661C131.711 45.765 131.824 45.8473 131.989 45.908C132.162 45.9687 132.418 45.999 132.756 45.999C133.007 45.999 133.224 45.9687 133.406 45.908C133.596 45.8473 133.739 45.7347 133.835 45.57C133.939 45.4053 133.991 45.1757 133.991 44.881C133.991 44.5517 133.913 44.14 133.757 43.646C133.609 43.1433 133.44 42.645 133.25 42.151L134.303 41.761C134.415 42.0383 134.519 42.3547 134.615 42.71C134.719 43.0653 134.805 43.4163 134.875 43.763C134.944 44.1097 134.979 44.413 134.979 44.673C134.979 45.0717 134.927 45.4227 134.823 45.726C134.719 46.0293 134.571 46.2807 134.381 46.48C134.19 46.6707 133.956 46.818 133.679 46.922C133.401 47.0173 133.089 47.065 132.743 47.065C132.335 47.065 132.002 47.0173 131.742 46.922C131.482 46.8267 131.282 46.6837 131.144 46.493C131.005 46.2937 130.914 46.0423 130.871 45.739H131.313C131.148 46.1117 130.975 46.3933 130.793 46.584C130.611 46.7747 130.385 46.9047 130.117 46.974C129.848 47.0347 129.493 47.065 129.051 47.065C128.834 47.065 128.6 47.0303 128.349 46.961C128.106 46.8917 127.894 46.7573 127.712 46.558C127.53 46.35 127.421 46.0423 127.387 45.635L127.777 45.557C127.629 45.999 127.447 46.3283 127.231 46.545C127.023 46.753 126.771 46.8917 126.477 46.961C126.182 47.0303 125.835 47.065 125.437 47.065ZM139.677 47.013C139.677 46.805 139.694 46.584 139.729 46.35C139.772 46.1073 139.833 45.8517 139.911 45.583C139.998 45.3057 140.102 45.0153 140.223 44.712L141.159 45.076C141.072 45.3187 140.994 45.5483 140.925 45.765C140.864 45.9817 140.817 46.1853 140.782 46.376C140.756 46.5667 140.743 46.7487 140.743 46.922C140.743 47.286 140.821 47.5937 140.977 47.845C141.142 48.105 141.367 48.3173 141.653 48.482C141.939 48.6467 142.264 48.768 142.628 48.846C143.001 48.924 143.395 48.963 143.811 48.963C144.314 48.963 144.782 48.9197 145.215 48.833C145.657 48.7463 146.043 48.6207 146.372 48.456C146.71 48.3 146.974 48.118 147.165 47.91C147.356 47.7107 147.451 47.494 147.451 47.26C147.451 47.1473 147.408 47.0433 147.321 46.948C147.234 46.8527 147.104 46.7617 146.931 46.675C146.758 46.5883 146.55 46.506 146.307 46.428C146.064 46.3413 145.787 46.2547 145.475 46.168L145.722 45.089C146.173 45.2623 146.571 45.4097 146.918 45.531C147.265 45.6437 147.568 45.7347 147.828 45.804C148.088 45.8733 148.313 45.9253 148.504 45.96C148.695 45.986 148.855 45.999 148.985 45.999C149.167 45.999 149.297 46.051 149.375 46.155C149.462 46.2503 149.505 46.3673 149.505 46.506C149.505 46.6447 149.444 46.7747 149.323 46.896C149.202 47.0087 149.046 47.065 148.855 47.065C148.803 47.065 148.751 47.065 148.699 47.065C148.647 47.065 148.591 47.065 148.53 47.065C148.478 47.065 148.426 47.065 148.374 47.065C148.391 47.143 148.404 47.2037 148.413 47.247C148.422 47.299 148.426 47.364 148.426 47.442C148.426 47.7627 148.313 48.0747 148.088 48.378C147.871 48.6813 147.551 48.9543 147.126 49.197C146.701 49.4483 146.186 49.6477 145.579 49.795C144.981 49.9423 144.296 50.016 143.525 50.016C142.84 50.016 142.203 49.9033 141.614 49.678C141.033 49.4613 140.565 49.132 140.21 48.69C139.855 48.248 139.677 47.689 139.677 47.013ZM148.859 47.065L148.989 45.999C149.535 45.999 149.956 45.9947 150.25 45.986C150.554 45.9773 150.775 45.9687 150.913 45.96C151.052 45.9427 151.147 45.934 151.199 45.934C151.043 45.8473 150.861 45.713 150.653 45.531C150.445 45.3403 150.263 45.102 150.107 44.816C149.951 44.5213 149.873 44.1747 149.873 43.776C149.873 43.282 149.986 42.8487 150.211 42.476C150.445 42.1033 150.762 41.813 151.16 41.605C151.568 41.397 152.031 41.293 152.551 41.293C152.751 41.293 152.963 41.3103 153.188 41.345C153.414 41.3797 153.63 41.4317 153.838 41.501L153.617 42.502C153.444 42.4587 153.262 42.424 153.071 42.398C152.881 42.372 152.707 42.359 152.551 42.359C152.239 42.359 151.962 42.4197 151.719 42.541C151.477 42.6537 151.286 42.814 151.147 43.022C151.009 43.23 150.939 43.4813 150.939 43.776C150.939 44.0013 150.987 44.2093 151.082 44.4C151.178 44.582 151.303 44.7467 151.459 44.894C151.615 45.0413 151.789 45.1627 151.979 45.258C152.17 45.3533 152.356 45.427 152.538 45.479C152.729 45.531 152.898 45.5527 153.045 45.544C153.149 45.5093 153.245 45.479 153.331 45.453C153.418 45.427 153.513 45.3967 153.617 45.362C153.73 45.3187 153.864 45.2623 154.02 45.193C154.185 45.1237 154.393 45.0327 154.644 44.92L155.008 45.869C154.428 46.103 153.834 46.311 153.227 46.493C152.629 46.675 151.975 46.818 151.264 46.922C150.562 47.0173 149.761 47.065 148.859 47.065ZM156.151 49.99L155.917 48.924C156.437 48.8547 156.914 48.755 157.347 48.625C157.789 48.5037 158.166 48.326 158.478 48.092C158.799 47.858 159.046 47.5503 159.219 47.169C159.393 46.7877 159.479 46.311 159.479 45.739C159.479 45.1497 159.371 44.66 159.154 44.27C158.938 43.88 158.656 43.685 158.309 43.685C158.127 43.685 157.958 43.7543 157.802 43.893C157.646 44.0317 157.516 44.218 157.412 44.452C157.317 44.686 157.269 44.9417 157.269 45.219C157.269 45.375 157.304 45.505 157.373 45.609C157.443 45.7043 157.542 45.7823 157.672 45.843C157.811 45.895 157.984 45.934 158.192 45.96C158.4 45.986 158.643 45.999 158.92 45.999H161.663C161.845 45.999 161.975 46.051 162.053 46.155C162.14 46.2503 162.183 46.3673 162.183 46.506C162.183 46.6447 162.123 46.7747 162.001 46.896C161.88 47.0087 161.724 47.065 161.533 47.065H158.426C158.036 47.065 157.672 47.0087 157.334 46.896C157.005 46.7833 156.736 46.61 156.528 46.376C156.329 46.1333 156.229 45.817 156.229 45.427C156.229 45.063 156.286 44.7163 156.398 44.387C156.511 44.049 156.663 43.75 156.853 43.49C157.053 43.2213 157.282 43.009 157.542 42.853C157.811 42.697 158.101 42.619 158.413 42.619C158.812 42.619 159.167 42.736 159.479 42.97C159.791 43.204 160.038 43.5593 160.22 44.036C160.402 44.504 160.493 45.0977 160.493 45.817C160.493 46.623 160.329 47.3163 159.999 47.897C159.679 48.4863 159.193 48.9543 158.543 49.301C157.902 49.6477 157.105 49.8773 156.151 49.99ZM161.529 47.065L161.659 45.999C162.023 45.999 162.309 45.9687 162.517 45.908C162.725 45.8387 162.881 45.713 162.985 45.531C163.098 45.3403 163.193 45.0673 163.271 44.712C163.349 44.3567 163.445 43.893 163.557 43.321L164.571 43.516C164.537 43.672 164.498 43.8453 164.454 44.036C164.411 44.2267 164.372 44.4173 164.337 44.608C164.311 44.79 164.298 44.9503 164.298 45.089C164.298 45.2623 164.337 45.4183 164.415 45.557C164.493 45.6957 164.662 45.804 164.922 45.882C165.182 45.96 165.581 45.999 166.118 45.999C166.3 45.999 166.43 46.051 166.508 46.155C166.595 46.2503 166.638 46.3673 166.638 46.506C166.638 46.6447 166.578 46.7747 166.456 46.896C166.335 47.0087 166.179 47.065 165.988 47.065C165.425 47.065 164.983 47.0173 164.662 46.922C164.342 46.818 164.108 46.6663 163.96 46.467C163.813 46.259 163.713 46.0077 163.661 45.713L164.051 45.739C163.913 46.0163 163.761 46.2417 163.596 46.415C163.44 46.5883 163.267 46.7227 163.076 46.818C162.886 46.9133 162.665 46.9783 162.413 47.013C162.162 47.0477 161.867 47.065 161.529 47.065ZM163.557 41.982C163.375 41.982 163.219 41.9213 163.089 41.8C162.968 41.67 162.907 41.5183 162.907 41.345C162.907 41.1717 162.968 41.02 163.089 40.89C163.219 40.76 163.375 40.695 163.557 40.695C163.731 40.695 163.878 40.76 163.999 40.89C164.129 41.02 164.194 41.1717 164.194 41.345C164.194 41.5183 164.129 41.67 163.999 41.8C163.878 41.9213 163.731 41.982 163.557 41.982ZM178.322 47.065C178.097 47.065 177.811 47.0433 177.464 47C177.126 46.948 176.78 46.8613 176.424 46.74C176.078 46.6187 175.783 46.4497 175.54 46.233L176.606 45.7C176.91 45.8213 177.222 45.9037 177.542 45.947C177.872 45.9817 178.175 45.999 178.452 45.999C178.634 45.999 178.764 46.051 178.842 46.155C178.929 46.2503 178.972 46.3673 178.972 46.506C178.972 46.6447 178.912 46.7747 178.79 46.896C178.669 47.0087 178.513 47.065 178.322 47.065ZM172.277 47.234C171.515 47.234 170.873 47.2037 170.353 47.143C169.842 47.091 169.426 47.0087 169.105 46.896C168.785 46.7833 168.542 46.6403 168.377 46.467C168.213 46.2937 168.1 46.0857 168.039 45.843L168.338 45.739C168.122 46.155 167.888 46.4583 167.636 46.649C167.385 46.831 167.121 46.948 166.843 47C166.575 47.0433 166.289 47.065 165.985 47.065L166.115 45.999C166.419 45.999 166.666 45.9557 166.856 45.869C167.056 45.7823 167.216 45.6393 167.337 45.44C167.467 45.2407 167.58 44.9763 167.675 44.647C167.771 44.3177 167.875 43.9103 167.987 43.425L168.936 43.672C168.884 43.8713 168.837 44.062 168.793 44.244C168.75 44.426 168.715 44.5863 168.689 44.725C168.672 44.855 168.663 44.959 168.663 45.037C168.663 45.245 168.711 45.4227 168.806 45.57C168.902 45.7087 169.084 45.8257 169.352 45.921C169.621 46.0077 170.007 46.0727 170.509 46.116C171.021 46.1507 171.688 46.168 172.511 46.168C173.083 46.168 173.595 46.1333 174.045 46.064C174.496 45.9947 174.873 45.8907 175.176 45.752C175.488 45.6047 175.727 45.427 175.891 45.219C176.056 45.011 176.138 44.7727 176.138 44.504C176.138 44.3133 176.091 44.127 175.995 43.945C175.9 43.7543 175.753 43.594 175.553 43.464C175.354 43.334 175.09 43.269 174.76 43.269C174.344 43.269 173.928 43.3773 173.512 43.594C173.105 43.8107 172.715 44.0837 172.342 44.413C171.978 44.7337 171.653 45.063 171.367 45.401C171.081 45.739 170.852 46.0337 170.678 46.285L169.547 46.246C169.825 45.7953 170.154 45.336 170.535 44.868C170.925 44.3913 171.35 43.9537 171.809 43.555C172.277 43.1477 172.767 42.8227 173.278 42.58C173.79 42.3287 174.31 42.203 174.838 42.203C175.315 42.203 175.722 42.3027 176.06 42.502C176.407 42.6927 176.671 42.9527 176.853 43.282C177.044 43.6113 177.139 43.984 177.139 44.4C177.139 44.9113 176.988 45.3837 176.684 45.817C176.39 46.2417 175.887 46.584 175.176 46.844C174.466 47.104 173.499 47.234 172.277 47.234ZM178.325 47.065L178.455 45.999C178.698 45.999 178.902 45.947 179.066 45.843C179.231 45.739 179.391 45.5657 179.547 45.323C179.703 45.0803 179.872 44.7553 180.054 44.348C180.306 43.7933 180.553 43.373 180.795 43.087C181.047 42.801 181.294 42.606 181.536 42.502C181.788 42.398 182.035 42.346 182.277 42.346C182.572 42.346 182.845 42.424 183.096 42.58C183.348 42.7273 183.569 42.9267 183.759 43.178C183.95 43.4293 184.097 43.7067 184.201 44.01C184.314 44.3047 184.37 44.5993 184.37 44.894C184.37 45.414 184.279 45.83 184.097 46.142C183.915 46.4453 183.681 46.6663 183.395 46.805C183.118 46.935 182.828 47 182.524 47C182.256 47 181.909 46.948 181.484 46.844C181.068 46.74 180.54 46.4757 179.898 46.051L180.405 45.232C180.83 45.5007 181.211 45.687 181.549 45.791C181.896 45.8863 182.182 45.934 182.407 45.934C182.659 45.934 182.858 45.8993 183.005 45.83C183.153 45.752 183.261 45.6437 183.33 45.505C183.4 45.3663 183.434 45.2103 183.434 45.037C183.434 44.7857 183.374 44.5343 183.252 44.283C183.131 44.0317 182.975 43.8237 182.784 43.659C182.602 43.4943 182.407 43.412 182.199 43.412C182.043 43.412 181.892 43.4553 181.744 43.542C181.597 43.6287 181.445 43.789 181.289 44.023C181.133 44.257 180.956 44.595 180.756 45.037C180.548 45.505 180.349 45.8777 180.158 46.155C179.976 46.4237 179.79 46.623 179.599 46.753C179.409 46.883 179.209 46.9653 179.001 47C178.802 47.0433 178.577 47.065 178.325 47.065ZM192.881 50.016C192.387 50.016 191.919 49.9467 191.477 49.808C191.035 49.678 190.64 49.483 190.294 49.223C189.956 48.963 189.687 48.6467 189.488 48.274C189.297 47.91 189.202 47.4897 189.202 47.013C189.202 46.805 189.219 46.584 189.254 46.35C189.297 46.1073 189.358 45.8517 189.436 45.583C189.522 45.3057 189.626 45.0153 189.748 44.712L190.684 45.076C190.597 45.3187 190.519 45.5483 190.45 45.765C190.389 45.9817 190.341 46.1853 190.307 46.376C190.281 46.5667 190.268 46.7487 190.268 46.922C190.268 47.364 190.385 47.7367 190.619 48.04C190.861 48.3433 191.182 48.5687 191.581 48.716C191.988 48.872 192.434 48.95 192.92 48.95C193.509 48.95 194.003 48.8807 194.402 48.742C194.8 48.612 195.117 48.4343 195.351 48.209C195.585 47.9923 195.749 47.7497 195.845 47.481C195.949 47.2123 196.001 46.9393 196.001 46.662C196.001 46.2807 195.97 45.921 195.91 45.583C195.858 45.245 195.784 44.9157 195.689 44.595C195.602 44.2657 195.507 43.932 195.403 43.594L196.456 43.308C196.551 43.6373 196.625 43.906 196.677 44.114C196.729 44.3133 196.768 44.4737 196.794 44.595C196.828 44.7163 196.859 44.8247 196.885 44.92C196.98 45.2407 197.088 45.479 197.21 45.635C197.34 45.7823 197.487 45.882 197.652 45.934C197.825 45.9773 198.02 45.999 198.237 45.999C198.41 45.999 198.562 45.9773 198.692 45.934C198.83 45.8907 198.956 45.7867 199.069 45.622C199.19 45.4573 199.294 45.193 199.381 44.829C199.476 44.465 199.563 43.9667 199.641 43.334L200.629 43.516C200.603 43.672 200.572 43.8627 200.538 44.088C200.503 44.3133 200.468 44.5387 200.434 44.764C200.408 44.9807 200.395 45.1627 200.395 45.31C200.395 45.4313 200.421 45.5483 200.473 45.661C200.533 45.765 200.646 45.8473 200.811 45.908C200.984 45.9687 201.24 45.999 201.578 45.999C201.846 45.999 202.076 45.9817 202.267 45.947C202.466 45.9037 202.618 45.804 202.722 45.648C202.834 45.4833 202.891 45.2277 202.891 44.881C202.891 44.6643 202.856 44.4087 202.787 44.114C202.717 43.8107 202.626 43.49 202.514 43.152C202.401 42.814 202.28 42.4803 202.15 42.151L203.203 41.761C203.315 42.0383 203.419 42.3547 203.515 42.71C203.619 43.0653 203.705 43.4163 203.775 43.763C203.844 44.1097 203.879 44.413 203.879 44.673C203.879 45.115 203.818 45.4877 203.697 45.791C203.584 46.0943 203.424 46.3413 203.216 46.532C203.008 46.7227 202.761 46.8613 202.475 46.948C202.197 47.026 201.894 47.065 201.565 47.065C201.261 47.065 200.997 47.039 200.772 46.987C200.555 46.935 200.369 46.857 200.213 46.753C200.065 46.6403 199.948 46.5017 199.862 46.337C199.784 46.1637 199.727 45.9643 199.693 45.739H200.135C199.996 46.051 199.84 46.3067 199.667 46.506C199.493 46.6967 199.285 46.8397 199.043 46.935C198.809 47.0217 198.518 47.065 198.172 47.065C197.903 47.065 197.673 47.0303 197.483 46.961C197.292 46.883 197.132 46.7877 197.002 46.675C196.88 46.5537 196.785 46.4193 196.716 46.272C196.646 46.116 196.594 45.96 196.56 45.804L197.093 46.467C197.049 46.883 196.954 47.299 196.807 47.715C196.668 48.131 196.443 48.5123 196.131 48.859C195.827 49.2143 195.411 49.496 194.883 49.704C194.354 49.912 193.687 50.016 192.881 50.016ZM199.524 39.915C199.342 39.915 199.186 39.8543 199.056 39.733C198.934 39.603 198.874 39.4513 198.874 39.278C198.874 39.1047 198.934 38.953 199.056 38.823C199.186 38.693 199.342 38.628 199.524 38.628C199.697 38.628 199.844 38.693 199.966 38.823C200.096 38.953 200.161 39.1047 200.161 39.278C200.161 39.4513 200.096 39.603 199.966 39.733C199.844 39.8543 199.697 39.915 199.524 39.915ZM198.64 41.345C198.458 41.345 198.302 41.2843 198.172 41.163C198.05 41.033 197.99 40.8813 197.99 40.708C197.99 40.5347 198.05 40.383 198.172 40.253C198.302 40.123 198.458 40.058 198.64 40.058C198.813 40.058 198.96 40.123 199.082 40.253C199.212 40.383 199.277 40.5347 199.277 40.708C199.277 40.8813 199.212 41.033 199.082 41.163C198.96 41.2843 198.813 41.345 198.64 41.345ZM200.408 41.345C200.226 41.345 200.07 41.2843 199.94 41.163C199.818 41.033 199.758 40.8813 199.758 40.708C199.758 40.5347 199.818 40.383 199.94 40.253C200.07 40.123 200.226 40.058 200.408 40.058C200.581 40.058 200.728 40.123 200.85 40.253C200.98 40.383 201.045 40.5347 201.045 40.708C201.045 40.8813 200.98 41.033 200.85 41.163C200.728 41.2843 200.581 41.345 200.408 41.345ZM205.282 49.99L205.048 48.924C205.568 48.8547 206.045 48.755 206.478 48.625C206.92 48.5037 207.297 48.326 207.609 48.092C207.93 47.858 208.177 47.5503 208.35 47.169C208.524 46.7877 208.61 46.311 208.61 45.739C208.61 45.1497 208.502 44.66 208.285 44.27C208.069 43.88 207.787 43.685 207.44 43.685C207.258 43.685 207.089 43.7543 206.933 43.893C206.777 44.0317 206.647 44.218 206.543 44.452C206.448 44.686 206.4 44.9417 206.4 45.219C206.4 45.375 206.435 45.505 206.504 45.609C206.574 45.7043 206.673 45.7823 206.803 45.843C206.942 45.895 207.115 45.934 207.323 45.96C207.531 45.986 207.774 45.999 208.051 45.999H210.794C210.976 45.999 211.106 46.051 211.184 46.155C211.271 46.2503 211.314 46.3673 211.314 46.506C211.314 46.6447 211.254 46.7747 211.132 46.896C211.011 47.0087 210.855 47.065 210.664 47.065H207.557C207.167 47.065 206.803 47.0087 206.465 46.896C206.136 46.7833 205.867 46.61 205.659 46.376C205.46 46.1333 205.36 45.817 205.36 45.427C205.36 45.063 205.417 44.7163 205.529 44.387C205.642 44.049 205.794 43.75 205.984 43.49C206.184 43.2213 206.413 43.009 206.673 42.853C206.942 42.697 207.232 42.619 207.544 42.619C207.943 42.619 208.298 42.736 208.61 42.97C208.922 43.204 209.169 43.5593 209.351 44.036C209.533 44.504 209.624 45.0977 209.624 45.817C209.624 46.623 209.46 47.3163 209.13 47.897C208.81 48.4863 208.324 48.9543 207.674 49.301C207.033 49.6477 206.236 49.8773 205.282 49.99ZM215.665 47.104C215.31 47.104 214.946 47.0563 214.573 46.961C214.2 46.857 213.841 46.714 213.494 46.532C213.156 46.35 212.848 46.129 212.571 45.869C212.302 45.6003 212.086 45.3013 211.921 44.972C211.765 44.6427 211.687 44.2873 211.687 43.906C211.687 43.516 211.765 43.1563 211.921 42.827C212.086 42.4977 212.315 42.2333 212.61 42.034C212.913 41.826 213.264 41.722 213.663 41.722C214.053 41.722 214.387 41.8303 214.664 42.047C214.941 42.255 215.154 42.528 215.301 42.866C215.457 43.1953 215.535 43.542 215.535 43.906C215.535 44.4087 215.392 44.8593 215.106 45.258C214.829 45.648 214.452 45.9773 213.975 46.246C213.498 46.5147 212.974 46.7183 212.402 46.857C211.83 46.9957 211.249 47.065 210.66 47.065L210.79 45.999C211.258 45.999 211.674 45.9687 212.038 45.908C212.411 45.8387 212.731 45.7477 213 45.635C213.399 45.479 213.711 45.2927 213.936 45.076C214.17 44.8507 214.335 44.621 214.43 44.387C214.525 44.153 214.573 43.9407 214.573 43.75C214.573 43.568 214.534 43.3947 214.456 43.23C214.387 43.0567 214.283 42.918 214.144 42.814C214.014 42.7013 213.854 42.645 213.663 42.645C213.472 42.645 213.299 42.7013 213.143 42.814C212.996 42.918 212.879 43.0567 212.792 43.23C212.705 43.4033 212.662 43.5853 212.662 43.776C212.662 44.14 212.753 44.465 212.935 44.751C213.126 45.0283 213.368 45.2667 213.663 45.466C213.966 45.6653 214.287 45.817 214.625 45.921C214.972 46.025 215.301 46.077 215.613 46.077C215.908 46.077 216.124 46.0293 216.263 45.934C216.402 45.83 216.471 45.661 216.471 45.427C216.471 45.3837 216.458 45.3057 216.432 45.193C216.415 45.0717 216.345 44.907 216.224 44.699C216.111 44.491 215.916 44.2353 215.639 43.932C215.362 43.62 214.972 43.2517 214.469 42.827C213.966 42.3937 213.316 41.891 212.519 41.319L213.13 40.513C213.962 41.1197 214.647 41.657 215.184 42.125C215.73 42.5843 216.159 42.9873 216.471 43.334C216.792 43.672 217.026 43.971 217.173 44.231C217.329 44.4823 217.429 44.7077 217.472 44.907C217.515 45.0977 217.537 45.2797 217.537 45.453C217.537 45.739 217.472 46.0077 217.342 46.259C217.221 46.5103 217.021 46.714 216.744 46.87C216.475 47.026 216.116 47.104 215.665 47.104Z" fill="white"/>
<defs>
<linearGradient id="paint0_linear_3602_3667" x1="-7.64247" y1="6.62126" x2="4929.19" y2="2308.71" gradientUnits="userSpaceOnUse">
<stop stop-color="#70243D"/>
<stop offset="1" stop-color="#C15767"/>
</linearGradient>
</defs>
</svg>
